<svg width="256" height="256" viewBox="0 0 256 256" fill="none" xmlns="http://www.w3.org/2000/svg">
<g clip-path="url(#clip0_3_2)">
<rect width="256" height="256" rx="20" fill="#247DE0"/>
<path d="M201.333 109.668H128C123.138 109.668 118.475 111.6 115.036 115.038C111.598 118.476 109.667 123.139 109.667 128.001V183.001C109.667 187.864 111.598 192.527 115.036 195.965C118.475 199.403 123.138 201.335 128 201.335H136.525C139.542 201.334 142.513 202.079 145.174 203.502C147.835 204.925 150.104 206.983 151.778 209.493L157.04 217.395C158.725 219.922 161.629 221.476 164.667 221.476C166.176 221.476 167.661 221.103 168.992 220.391C170.322 219.679 171.456 218.65 172.293 217.395L177.555 209.502C179.229 206.99 181.497 204.931 184.158 203.506C186.818 202.081 189.79 201.335 192.808 201.335H201.333C206.196 201.335 210.859 199.403 214.297 195.965C217.735 192.527 219.667 187.864 219.667 183.001V128.001C219.667 123.139 217.735 118.476 214.297 115.038C210.859 111.6 206.196 109.668 201.333 109.668Z" fill="white" stroke="white" stroke-width="10" stroke-linecap="round" stroke-linejoin="round"/>
<path d="M146.333 82.1654V54.6654C146.333 49.8031 144.402 45.1399 140.964 41.7017C137.525 38.2636 132.862 36.332 128 36.332H54.6667C49.8044 36.332 45.1412 38.2636 41.7031 41.7017C38.2649 45.1399 36.3334 49.8031 36.3334 54.6654V109.665C36.3334 114.528 38.2649 119.191 41.7031 122.629C45.1412 126.067 49.8044 127.999 54.6667 127.999H63.1917C66.2092 127.998 69.1802 128.743 71.8411 130.166C74.5019 131.589 76.7703 133.647 78.445 136.157L82.1667 141.749" stroke="white" stroke-width="10" stroke-linecap="round" stroke-linejoin="round"/>
<path d="M136.438 181V135.5H151.812V181H136.438ZM159.028 181V172.781L176.746 147.219H159.746V135.5H195.965V144.312L178.434 169.688H197.121V181H159.028Z" fill="#247DE0"/>
</g>
<defs>
<clipPath id="clip0_3_2">
<rect width="256" height="256" fill="white"/>
</clipPath>
</defs>
</svg>
